<svg width="1600" height="920" viewBox="0 0 1600 920" fill="none" xmlns="http://www.w3.org/2000/svg" role="img" aria-labelledby="system-architecture-title system-architecture-desc">
  <title id="system-architecture-title">OpenDot system architecture</title>
  <desc id="system-architecture-desc">Browser console, platform API, PostgreSQL, voice runtime, hosted providers, and Dot firmware connections.</desc>
  <defs>
    <marker id="arrow" markerWidth="11" markerHeight="11" refX="9" refY="5.5" orient="auto" markerUnits="strokeWidth">
      <path d="M0 0L11 5.5L0 11Z" fill="#6d28d9" />
    </marker>
    <filter id="soft-shadow" x="-20%" y="-20%" width="140%" height="140%">
      <feDropShadow dx="0" dy="16" stdDeviation="20" flood-color="#2e1065" flood-opacity="0.09" />
    </filter>
    <style>
      .bg { fill: #fbf9ff; }
      .panel { fill: #fff; stroke: #e8ddf8; stroke-width: 2; filter: url(#soft-shadow); }
      .panel-soft { fill: #f7f5fb; stroke: #e8ddf8; stroke-width: 2; }
      .dark { fill: #14091f; stroke: #6d28d9; stroke-opacity: .48; stroke-width: 2; }
      .title { font-family: Manrope, Arial, sans-serif; font-size: 38px; font-weight: 800; fill: #171321; }
      .subtitle { font-family: Manrope, Arial, sans-serif; font-size: 17px; font-weight: 500; fill: #625c6f; }
      .label { font-family: Manrope, Arial, sans-serif; font-size: 22px; font-weight: 800; fill: #171321; }
      .dark-label { font-family: Manrope, Arial, sans-serif; font-size: 22px; font-weight: 800; fill: #fff; }
      .body { font-family: Manrope, Arial, sans-serif; font-size: 15px; font-weight: 500; fill: #625c6f; }
      .dark-body { font-family: Manrope, Arial, sans-serif; font-size: 15px; font-weight: 500; fill: #ede9fe; }
      .chip { fill: #ede9fe; stroke: #d8c3f7; stroke-width: 1.5; }
      .chip-text { font-family: Manrope, Arial, sans-serif; font-size: 13px; font-weight: 800; fill: #5b21b6; }
      .line { stroke: #6d28d9; stroke-width: 2.5; marker-end: url(#arrow); }
      .line-soft { stroke: #a78bfa; stroke-width: 2.2; stroke-dasharray: 8 8; marker-end: url(#arrow); }
      .mono { font-family: SFMono-Regular, Consolas, monospace; font-size: 13px; font-weight: 600; fill: #5b21b6; }
    </style>
  </defs>

  <rect class="bg" width="1600" height="920" />
  <text class="title" x="80" y="82">OpenDot current architecture</text>
  <text class="subtitle" x="80" y="116">The platform owns durable configuration and device binding. The realtime runtime owns live audio sessions.</text>

  <rect class="panel" x="80" y="180" width="300" height="166" rx="8" />
  <text class="label" x="112" y="224">Web console</text>
  <text class="body" x="112" y="256">React, Vite, TanStack Query</text>
  <text class="body" x="112" y="282">Agent Studio, Configuration,</text>
  <text class="body" x="112" y="306">Browser Test, Dot Device</text>

  <rect class="panel" x="520" y="180" width="330" height="174" rx="8" />
  <text class="label" x="552" y="224">Platform API</text>
  <text class="body" x="552" y="256">Fastify control plane</text>
  <text class="body" x="552" y="282">Auth, agents, pipelines, devices,</text>
  <text class="body" x="552" y="306">deployments, runtime tokens</text>
  <rect class="chip" x="552" y="320" width="140" height="28" rx="8" />
  <text class="chip-text" x="568" y="339">/api/internal/*</text>

  <rect class="panel" x="990" y="180" width="330" height="166" rx="8" />
  <text class="label" x="1022" y="224">PostgreSQL</text>
  <text class="body" x="1022" y="256">Drizzle schema and migrations</text>
  <text class="body" x="1022" y="282">Agents, pipelines, devices,</text>
  <text class="body" x="1022" y="306">credentials, deployments</text>

  <rect class="dark" x="520" y="555" width="360" height="190" rx="8" />
  <text class="dark-label" x="552" y="602">Voice runtime</text>
  <text class="dark-body" x="552" y="634">Node WebSocket service</text>
  <text class="dark-body" x="552" y="660">Browser /voice and device /ws</text>
  <text class="dark-body" x="552" y="686">VAD, STT, LLM, TTS orchestration</text>
  <rect class="chip" x="552" y="705" width="86" height="28" rx="8" />
  <text class="chip-text" x="573" y="724">:8787</text>

  <rect class="panel" x="80" y="565" width="300" height="170" rx="8" />
  <text class="label" x="112" y="612">Dot firmware</text>
  <text class="body" x="112" y="644">ESP-IDF on ESP32-S3 audio board</text>
  <text class="body" x="112" y="670">Wi-Fi provisioning, activation,</text>
  <text class="body" x="112" y="696">wake word, audio I/O, display</text>

  <rect class="panel" x="1040" y="565" width="360" height="170" rx="8" />
  <text class="label" x="1072" y="612">Hosted providers</text>
  <text class="body" x="1072" y="644">Deepgram live STT and VAD</text>
  <text class="body" x="1072" y="670">OpenAI-compatible LLM</text>
  <text class="body" x="1072" y="696">Deepgram TTS audio</text>

  <rect class="panel-soft" x="80" y="810" width="1320" height="58" rx="8" />
  <text class="body" x="112" y="844">Docs, Docker Compose, Render Blueprint, containers, and firmware notes describe how contributors run and verify each boundary.</text>

  <path class="line" d="M380 262H510" />
  <text class="mono" x="410" y="245">REST + bearer auth</text>

  <path class="line" d="M850 262H980" />
  <text class="mono" x="895" y="245">Drizzle</text>

  <path class="line" d="M685 354V545" />
  <text class="mono" x="705" y="456">verify tokens + load config</text>

  <path class="line-soft" d="M230 346V455H610V545" />
  <text class="mono" x="264" y="432">voice-session token</text>

  <path class="line" d="M380 650H510" />
  <text class="mono" x="410" y="632">/ota + /ws</text>

  <path class="line" d="M880 650H1030" />
  <text class="mono" x="918" y="632">provider calls</text>

  <path class="line-soft" d="M1040 704H890" />
  <text class="mono" x="920" y="734">audio + text results</text>

  <path class="line-soft" d="M850 305H930V600H1030" />
  <text class="mono" x="906" y="585">runtime state</text>
</svg>
