<svg width="1600" height="900" viewBox="0 0 1600 900" fill="none" xmlns="http://www.w3.org/2000/svg" role="img" aria-labelledby="voice-turn-flow-title voice-turn-flow-desc">
  <title id="voice-turn-flow-title">OpenDot voice turn flow</title>
  <desc id="voice-turn-flow-desc">Sandwich browser or device audio moves through VAD, STT, LLM, TTS, and playback. Speech-to-speech uses browser WebRTC or a runtime device bridge to OpenAI Realtime.</desc>
  <defs>
    <marker id="arrow" markerWidth="11" markerHeight="11" refX="9" refY="5.5" orient="auto" markerUnits="strokeWidth">
      <path d="M0 0L11 5.5L0 11Z" fill="#6d28d9" />
    </marker>
    <style>
      .bg { fill: #fbf9ff; }
      .panel { fill: #fff; stroke: #e8ddf8; stroke-width: 2; }
      .stage { fill: #fff; stroke: #d8c3f7; stroke-width: 2; }
      .runtime { fill: #14091f; stroke: #6d28d9; stroke-opacity: .48; stroke-width: 2; }
      .title { font-family: Manrope, Arial, sans-serif; font-size: 38px; font-weight: 800; fill: #171321; }
      .body { font-family: Manrope, Arial, sans-serif; font-size: 15px; font-weight: 500; fill: #625c6f; }
      .label { font-family: Manrope, Arial, sans-serif; font-size: 19px; font-weight: 800; fill: #171321; }
      .dark-label { font-family: Manrope, Arial, sans-serif; font-size: 20px; font-weight: 800; fill: #fff; }
      .dark-body { font-family: Manrope, Arial, sans-serif; font-size: 15px; font-weight: 500; fill: #ede9fe; }
      .stage-title { font-family: Manrope, Arial, sans-serif; font-size: 28px; font-weight: 900; fill: #5b21b6; }
      .mono { font-family: SFMono-Regular, Consolas, monospace; font-size: 13px; font-weight: 600; fill: #5b21b6; }
      .line { stroke: #6d28d9; stroke-width: 2.5; marker-end: url(#arrow); }
      .line-soft { stroke: #a78bfa; stroke-width: 2.2; stroke-dasharray: 8 8; marker-end: url(#arrow); }
      .chip { fill: #ede9fe; stroke: #d8c3f7; stroke-width: 1.5; }
      .chip-text { font-family: Manrope, Arial, sans-serif; font-size: 13px; font-weight: 800; fill: #5b21b6; }
    </style>
  </defs>

  <rect class="bg" width="1600" height="900" />
  <text class="title" x="80" y="82">Voice turn flow</text>
  <text class="body" x="80" y="116">Sandwich keeps VAD, STT, LLM, and TTS explicit. Speech-to-speech uses browser WebRTC or a runtime /ws device bridge.</text>

  <rect class="panel" x="80" y="210" width="240" height="125" rx="8" />
  <text class="label" x="112" y="252">Browser Test</text>
  <text class="body" x="112" y="282">Sandwich voice token</text>
  <text class="mono" x="112" y="306">WebSocket /voice</text>

  <rect class="panel" x="80" y="430" width="240" height="125" rx="8" />
  <text class="label" x="112" y="472">Dot firmware</text>
  <text class="body" x="112" y="502">Device credential</text>
  <text class="mono" x="112" y="526">WebSocket /ws</text>

  <rect class="panel" x="80" y="610" width="240" height="125" rx="8" />
  <text class="label" x="112" y="652">Browser Realtime</text>
  <text class="body" x="112" y="682">One-use session token</text>
  <text class="mono" x="112" y="706">WebRTC call</text>

  <rect class="panel" x="410" y="150" width="285" height="104" rx="8" />
  <text class="label" x="442" y="192">Platform API</text>
  <text class="body" x="442" y="222">Token verification and config lookup</text>

  <rect class="runtime" x="410" y="330" width="285" height="170" rx="8" />
  <text class="dark-label" x="442" y="376">Voice runtime</text>
  <text class="dark-body" x="442" y="408">Verifies session with API</text>
  <text class="dark-body" x="442" y="434">Loads authorized agent config</text>
  <rect class="chip" x="442" y="454" width="86" height="28" rx="8" />
  <text class="chip-text" x="463" y="473">:8787</text>

  <path class="line" d="M320 272H400" />
  <text class="mono" x="342" y="252">audio frames</text>
  <path class="line" d="M320 492H400" />
  <text class="mono" x="342" y="474">PCM / opus</text>
  <path class="line" d="M320 672H552V510" />
  <text class="mono" x="334" y="650">client secret</text>
  <path class="line-soft" d="M552 330V264" />
  <text class="mono" x="574" y="304">verify</text>

  <rect class="stage" x="790" y="335" width="130" height="120" rx="8" />
  <text class="stage-title" x="829" y="382">VAD</text>
  <text class="body" x="816" y="414">turn close</text>
  <text class="mono" x="815" y="438">Deepgram</text>

  <rect class="stage" x="960" y="335" width="130" height="120" rx="8" />
  <text class="stage-title" x="999" y="382">STT</text>
  <text class="body" x="986" y="414">transcript</text>
  <text class="mono" x="988" y="438">nova-3</text>

  <rect class="stage" x="1130" y="335" width="130" height="120" rx="8" />
  <text class="stage-title" x="1168" y="382">LLM</text>
  <text class="body" x="1156" y="414">text chunks</text>
  <text class="mono" x="1147" y="438">OpenAI API</text>

  <rect class="stage" x="1300" y="335" width="130" height="120" rx="8" />
  <text class="stage-title" x="1339" y="382">TTS</text>
  <text class="body" x="1326" y="414">audio chunks</text>
  <text class="mono" x="1325" y="438">Deepgram</text>

  <rect class="panel" x="1320" y="565" width="170" height="120" rx="8" />
  <text class="label" x="1354" y="608">Playback</text>
  <text class="body" x="1354" y="638">browser speaker</text>
  <text class="body" x="1354" y="662">or Dot speaker</text>

  <rect class="stage" x="790" y="565" width="310" height="120" rx="8" />
  <text class="label" x="822" y="608">OpenAI Realtime</text>
  <text class="body" x="822" y="638">WebRTC or /ws bridge</text>
  <text class="mono" x="822" y="662">gpt-realtime-2</text>

  <path class="line" d="M695 415H780" />
  <text class="mono" x="714" y="394">agent config</text>
  <path class="line" d="M920 395H950" />
  <path class="line" d="M1090 395H1120" />
  <path class="line" d="M1260 395H1290" />
  <path class="line" d="M1365 455V555" />
  <text class="mono" x="1384" y="516">audio</text>

  <path class="line-soft" d="M695 468H745V625H780" />
  <text class="mono" x="710" y="548">secret / bridge</text>
  <path class="line" d="M1100 625H1310" />

  <path class="line-soft" d="M1320 675V720H650V510" />
  <text class="mono" x="776" y="708">responses, chunks, timing events</text>

  <rect class="panel" x="80" y="760" width="1410" height="58" rx="8" />
  <text class="body" x="112" y="794">Current paths are Sandwich /voice and /ws, plus Speech-to-speech browser WebRTC and Dot /ws Realtime bridge.</text>
</svg>
