<svg width="760" height="220" viewBox="0 0 760 220" fill="none" xmlns="http://www.w3.org/2000/svg" role="img" aria-labelledby="opendot-banner-title">
  <title id="opendot-banner-title">OpenDot</title>
  <defs>
    <linearGradient id="opendot-mark-gradient" x1="126" y1="61" x2="212" y2="158" gradientUnits="userSpaceOnUse">
      <stop stop-color="#7C3AED"/>
      <stop offset="0.52" stop-color="#5B21B6"/>
      <stop offset="1" stop-color="#2E1065"/>
    </linearGradient>
    <linearGradient id="opendot-text-gradient" x1="250" y1="80" x2="520" y2="140" gradientUnits="userSpaceOnUse">
      <stop stop-color="#7C3AED"/>
      <stop offset="1" stop-color="#2E1065"/>
    </linearGradient>
    <filter id="banner-shadow" x="10" y="8" width="740" height="204" filterUnits="userSpaceOnUse" color-interpolation-filters="sRGB">
      <feDropShadow dx="0" dy="10" stdDeviation="18" flood-color="#2E1065" flood-opacity="0.12"/>
    </filter>
  </defs>
  <rect x="30" y="28" width="700" height="164" rx="28" fill="#FFFFFF" filter="url(#banner-shadow)"/>
  <rect x="30.5" y="28.5" width="699" height="163" rx="27.5" stroke="#EDE9FE"/>
  <g opacity="0.18" stroke="#7C3AED" stroke-width="1.4">
    <path d="M492 67L553 99L624 72"/>
    <path d="M553 99L604 139L677 113"/>
    <path d="M492 67L528 147L604 139"/>
    <path d="M624 72L677 113"/>
    <path d="M528 147L455 137L492 67"/>
  </g>
  <g opacity="0.34" fill="#7C3AED">
    <circle cx="492" cy="67" r="4"/>
    <circle cx="553" cy="99" r="5"/>
    <circle cx="624" cy="72" r="4"/>
    <circle cx="677" cy="113" r="5"/>
    <circle cx="604" cy="139" r="4"/>
    <circle cx="528" cy="147" r="5"/>
    <circle cx="455" cy="137" r="3.5"/>
  </g>
  <path d="M113 110C113 79.072 138.072 54 169 54C199.928 54 225 79.072 225 110C225 140.928 199.928 166 169 166C138.072 166 113 140.928 113 110ZM148.384 86.896C148.384 108.692 158.988 145.628 169 149.484C179.012 153.336 208.484 131.812 208.484 110C208.484 88.208 179.012 74.392 169 70.536C158.988 66.684 148.384 65.08 148.384 86.896Z" fill="url(#opendot-mark-gradient)" fill-rule="evenodd"/>
  <text x="256" y="128" fill="url(#opendot-text-gradient)" font-family="Avenir Next, Helvetica Neue, Inter, Arial, sans-serif" font-size="54" font-weight="500" letter-spacing="0">OpenDot</text>
</svg>
